<?xml version="1.0" encoding="UTF-8"?>
<svg id="Layer_1" data-name="Layer 1" xmlns="http://www.w3.org/2000/svg" xmlns:xlink="http://www.w3.org/1999/xlink" viewBox="0 0 535 330.88">
  <defs>
    <style>
      .cls-1 {
        fill: #fff;
      }

      .cls-2 {
        fill: url(#linear-gradient);
      }
    </style>
    <linearGradient id="linear-gradient" x1="82.31" y1="349.74" x2="451.87" y2="-19.82" gradientTransform="translate(-.62 .09)" gradientUnits="userSpaceOnUse">
      <stop offset="0" stop-color="blue"/>
      <stop offset=".07" stop-color="#1a20fa"/>
      <stop offset=".24" stop-color="#5465f1"/>
      <stop offset=".39" stop-color="#829cea"/>
      <stop offset=".52" stop-color="#a3c4e5"/>
      <stop offset=".62" stop-color="#b7dde2"/>
      <stop offset=".68" stop-color="#bfe6e1"/>
      <stop offset=".8" stop-color="#dcf1bf"/>
      <stop offset=".93" stop-color="#f5fba3"/>
      <stop offset="1" stop-color="#ff9"/>
      <stop offset="1" stop-color="#fffff1"/>
    </linearGradient>
  </defs>
  <rect class="cls-1" x="0" y="0" width="535" height="330.88" rx="33.21" ry="33.21"/>
  <rect class="cls-2" x="23.98" y="20.69" width="485" height="288.73" rx="29.53" ry="29.53"/>
  <path class="cls-1" d="m114.98,153.07c-7.92,0-14.72-1.22-20.4-3.66-5.68-2.44-10.12-6.1-13.32-10.98-3.2-4.88-4.92-10.92-5.16-18.12-.08-3.36-.12-6.98-.12-10.86s.04-7.54.12-10.98c.24-6.96,1.98-12.8,5.22-17.52,3.24-4.72,7.74-8.28,13.5-10.68,5.76-2.4,12.48-3.6,20.16-3.6,6.16,0,11.64.72,16.44,2.16s8.9,3.4,12.3,5.88c3.4,2.48,6,5.26,7.8,8.34,1.8,3.08,2.74,6.26,2.82,9.54,0,.72-.26,1.32-.78,1.8-.52.48-1.14.72-1.86.72h-22.08c-.8,0-1.44-.12-1.92-.36-.48-.24-.92-.6-1.32-1.08-.4-.8-1.02-1.72-1.86-2.76-.84-1.04-2.02-1.94-3.54-2.7-1.52-.76-3.52-1.14-6-1.14-3.76,0-6.68.96-8.76,2.88-2.08,1.92-3.2,4.96-3.36,9.12-.24,6.72-.24,13.6,0,20.64.16,4.56,1.34,7.86,3.54,9.9,2.2,2.04,5.18,3.06,8.94,3.06,2.48,0,4.7-.4,6.66-1.2,1.96-.8,3.5-2.06,4.62-3.78,1.12-1.72,1.68-3.94,1.68-6.66v-1.2h-8.52c-.88,0-1.62-.32-2.22-.96-.6-.64-.9-1.36-.9-2.16v-11.16c0-.88.3-1.62.9-2.22s1.34-.9,2.22-.9h31.56c.88,0,1.64.3,2.28.9.64.6.96,1.34.96,2.22v14.64c0,7.04-1.68,13-5.04,17.88-3.36,4.88-8,8.6-13.92,11.16-5.92,2.56-12.8,3.84-20.64,3.84Z"/>
  <path class="cls-1" d="m183.81,151.87c-.8,0-1.52-.3-2.16-.9-.64-.6-.96-1.34-.96-2.22v-77.76c0-.88.32-1.62.96-2.22.64-.6,1.36-.9,2.16-.9h34.2c10.88,0,19.42,2.48,25.62,7.44,6.2,4.96,9.3,11.88,9.3,20.76,0,5.6-1.28,10.36-3.84,14.28-2.56,3.92-5.92,7-10.08,9.24l15.6,28.32c.24.48.36.92.36,1.32,0,.72-.24,1.34-.72,1.86-.48.52-1.08.78-1.8.78h-20.28c-1.52,0-2.68-.38-3.48-1.14-.8-.76-1.32-1.46-1.56-2.1l-12-24.72h-8.64v24.84c0,.88-.3,1.62-.9,2.22-.6.6-1.34.9-2.22.9h-19.56Zm22.68-47.76h11.4c2.8,0,4.88-.78,6.24-2.34,1.36-1.56,2.04-3.5,2.04-5.82s-.66-4.44-1.98-6.12-3.42-2.52-6.3-2.52h-11.4v16.8Z"/>
  <path class="cls-1" d="m272.21,151.87c-.72,0-1.32-.26-1.8-.78-.48-.52-.72-1.14-.72-1.86,0-.32.04-.6.12-.84l27.36-76.8c.32-.88.88-1.72,1.68-2.52s1.92-1.2,3.36-1.2h21.96c1.52,0,2.68.4,3.48,1.2.8.8,1.32,1.64,1.56,2.52l27.48,76.8c.08.24.12.52.12.84,0,.72-.26,1.34-.78,1.86s-1.14.78-1.86.78h-18.48c-1.36,0-2.36-.32-3-.96-.64-.64-1.08-1.24-1.32-1.8l-3.72-10.08h-28.92l-3.72,10.08c-.24.56-.66,1.16-1.26,1.8-.6.64-1.62.96-3.06.96h-18.48Zm32.04-33.12h17.88l-9-27-8.88,27Z"/>
  <path class="cls-1" d="m378.85,151.87c-.62,0-1.18-.18-1.7-.53-.94-.64-1.42-1.78-1.42-2.91v-77.11c0-1.14.48-2.27,1.42-2.91.52-.35,1.09-.53,1.7-.53h32.88c7.76,0,14.48,1.26,20.16,3.78,5.68,2.52,10.16,6.22,13.44,11.1,3.28,4.88,5.04,10.88,5.28,18,.16,3.44.24,6.48.24,9.12s-.08,5.64-.24,9c-.32,7.52-2.02,13.72-5.1,18.6-3.08,4.88-7.42,8.5-13.02,10.86-5.6,2.36-12.32,3.54-20.16,3.54h-33.48Zm22.68-24.1c0,2.04,1.66,3.7,3.7,3.7h6.5c2.64,0,4.88-.44,6.72-1.32,1.84-.88,3.28-2.26,4.32-4.14,1.04-1.88,1.6-4.3,1.68-7.26.08-2.32.14-4.4.18-6.24.04-1.84.04-3.68,0-5.52-.04-1.84-.1-3.88-.18-6.12-.16-4.4-1.42-7.6-3.78-9.6-2.36-2-5.54-3-9.54-3h-5.9c-2.04,0-3.7,1.66-3.7,3.7v35.8Z"/>
  <path class="cls-1" d="m86.5,265.87c-.8,0-1.52-.3-2.16-.9-.64-.6-.96-1.34-.96-2.22v-77.76c0-.88.32-1.62.96-2.22.64-.6,1.36-.9,2.16-.9h35.04c6.96,0,13.02,1.04,18.18,3.12,5.16,2.08,9.18,5.24,12.06,9.48,2.88,4.24,4.32,9.56,4.32,15.96s-1.44,11.66-4.32,15.78c-2.88,4.12-6.9,7.14-12.06,9.06-5.16,1.92-11.22,2.88-18.18,2.88h-11.4v24.6c0,.88-.3,1.62-.9,2.22-.6.6-1.34.9-2.22.9h-20.52Zm23.16-47.04h11.28c2.32,0,4.3-.7,5.94-2.1,1.64-1.4,2.46-3.58,2.46-6.54,0-2.32-.64-4.38-1.92-6.18-1.28-1.8-3.44-2.7-6.48-2.7h-11.28v17.52Z"/>
  <path class="cls-1" d="m172.46,265.87c-.72,0-1.32-.26-1.8-.78-.48-.52-.72-1.14-.72-1.86,0-.32.04-.6.12-.84l27.36-76.8c.32-.88.88-1.72,1.68-2.52s1.92-1.2,3.36-1.2h21.96c1.52,0,2.68.4,3.48,1.2.8.8,1.32,1.64,1.56,2.52l27.48,76.8c.08.24.12.52.12.84,0,.72-.26,1.34-.78,1.86-.52.52-1.14.78-1.86.78h-18.48c-1.36,0-2.36-.32-3-.96-.64-.64-1.08-1.24-1.32-1.8l-3.72-10.08h-28.92l-3.72,10.08c-.24.56-.66,1.16-1.26,1.8-.6.64-1.62.96-3.06.96h-18.48Zm32.04-33.12h17.88l-9-27-8.88,27Z"/>
  <path class="cls-1" d="m302.06,265.87c-.88,0-1.62-.3-2.22-.9s-.9-1.34-.9-2.22v-58.56h-20.64c-.88,0-1.62-.3-2.22-.9-.6-.6-.9-1.34-.9-2.22v-16.08c0-.88.3-1.62.9-2.22.6-.6,1.34-.9,2.22-.9h67.44c.88,0,1.62.3,2.22.9s.9,1.34.9,2.22v16.08c0,.88-.3,1.62-.9,2.22s-1.34.9-2.22.9h-20.64v58.56c0,.88-.3,1.62-.9,2.22-.6.6-1.34.9-2.22.9h-19.92Z"/>
  <path class="cls-1" d="m378.06,265.87c-.8,0-1.52-.28-2.16-.84-.64-.56-.96-1.32-.96-2.28v-77.76c0-.88.32-1.62.96-2.22.64-.6,1.36-.9,2.16-.9h19.56c.88,0,1.62.3,2.22.9.6.6.9,1.34.9,2.22v27.12h24.48v-27.12c0-.88.32-1.62.96-2.22.64-.6,1.36-.9,2.16-.9h19.56c.88,0,1.62.3,2.22.9s.9,1.34.9,2.22v77.76c0,.88-.3,1.62-.9,2.22s-1.34.9-2.22.9h-19.56c-.8,0-1.52-.3-2.16-.9-.64-.6-.96-1.34-.96-2.22v-27.84h-24.48v27.84c0,.88-.3,1.62-.9,2.22-.6.6-1.34.9-2.22.9h-19.56Z"/>
</svg>